<svg xmlns="http://www.w3.org/2000/svg" viewBox="0 0 100 100">
  <!-- Main pad (palm) -->
  <path d="M30 55 Q30 45 40 45 Q50 45 50 55 Q50 75 40 80 Q30 75 30 55" fill="#ff9f43"/>
  <path d="M50 55 Q50 45 60 45 Q70 45 70 55 Q70 75 60 80 Q50 75 50 55" fill="#ff9f43"/>
  
  <!-- Toe beans -->
  <ellipse cx="25" cy="35" rx="10" ry="12" fill="#ff9f43"/>
  <ellipse cx="50" cy="25" rx="10" ry="12" fill="#ff9f43"/>
  <ellipse cx="75" cy="35" rx="10" ry="12" fill="#ff9f43"/>
  
  <!-- Inner pads (lighter) -->
  <ellipse cx="25" cy="35" rx="5" ry="6" fill="#ffb86c"/>
  <ellipse cx="50" cy="25" rx="5" ry="6" fill="#ffb86c"/>
  <ellipse cx="75" cy="35" rx="5" ry="6" fill="#ffb86c"/>
  <ellipse cx="40" cy="60" rx="6" ry="8" fill="#ffb86c"/>
  <ellipse cx="60" cy="60" rx="6" ry="8" fill="#ffb86c"/>
</svg>